grf
version=1
nRows=19
nColumns=28
inDegrees=yes
endheader
time	ground_force_1_vx	ground_force_1_vy	ground_force_1_vz	ground_force_1_px	ground_force_1_py	ground_force_1_pz	ground_moment_1_mx	ground_moment_1_my	ground_moment_1_mz	ground_force_2_vx	ground_force_2_vy	ground_force_2_vz	ground_force_2_px	ground_force_2_py	ground_force_2_pz	ground_moment_2_mx	ground_moment_2_my	ground_moment_2_mz	ground_force_3_vx	ground_force_3_vy	ground_force_3_vz	ground_force_3_px	ground_force_3_py	ground_force_3_pz	ground_moment_3_mx	ground_moment_3_my	ground_moment_3_mz
0.000000	0.000000	0.000000	0.000000	-0.247710	0.000000	-0.385794	0.000000	0.000000	0.000000	0.000000	0.000000	0.000000	-0.173124	0.000000	-0.497385	0.000000	0.000000	0.000000	0.000000	0.000000	0.000000	0.867904	0.000000	-0.237660	0.000000	0.000000	0.000000
0.000833	0.000000	0.000000	0.000000	-0.364838	0.000000	-0.386619	0.000000	0.000000	0.000000	0.000000	0.000000	0.000000	0.394972	0.000000	-0.333086	0.000000	0.000000	0.000000	0.000000	0.000000	0.000000	1.023138	0.000000	-0.559873	0.000000	0.000000	0.000000
0.001667	0.000000	0.000000	0.000000	-0.342189	0.000000	-0.295453	0.000000	0.000000	0.000000	0.000000	0.000000	0.000000	0.468333	0.000000	-0.045375	0.000000	0.000000	0.000000	0.000000	0.000000	0.000000	0.852472	0.000000	-0.380942	0.000000	0.000000	0.000000
0.002500	0.000000	0.000000	0.000000	-0.118718	0.000000	-0.320640	0.000000	0.000000	0.000000	0.000000	0.000000	0.000000	0.257156	0.000000	-0.287553	0.000000	0.000000	0.000000	0.000000	0.000000	0.000000	1.165048	0.000000	-0.493606	0.000000	0.000000	0.000000
0.003333	0.000000	0.000000	0.000000	-0.181065	0.000000	-0.569142	0.000000	0.000000	0.000000	0.000000	0.000000	0.000000	-0.674825	0.000000	-0.341707	0.000000	0.000000	0.000000	0.000000	0.000000	0.000000	0.974150	0.000000	-0.391118	0.000000	0.000000	0.000000
0.004167	0.000000	0.000000	0.000000	-0.109598	-0.000000	0.405019	0.000000	0.000000	0.000000	0.000000	0.000000	0.000000	-0.012776	-0.000000	0.376894	0.000000	0.000000	0.000000	0.000000	0.000000	0.000000	-0.220948	0.000000	-0.982806	0.000000	0.000000	0.000000
0.005000	0.000000	0.000000	0.000000	-0.141581	0.000000	-0.282989	0.000000	0.000000	0.000000	0.000000	0.000000	0.000000	0.237107	0.000000	-0.308448	0.000000	0.000000	0.000000	0.000000	0.000000	0.000000	0.936647	0.000000	-0.634923	0.000000	0.000000	0.000000
0.005833	0.000000	0.000000	0.000000	-0.234262	0.000000	-0.187254	0.000000	0.000000	0.000000	0.000000	0.000000	0.000000	0.085047	0.000000	-0.464257	0.000000	0.000000	0.000000	0.000000	0.000000	0.000000	-1.390686	-0.000000	1.219813	0.000000	0.000000	0.000000
0.006667	0.000000	0.000000	0.000000	-0.913243	0.000000	-1.067959	0.000000	0.000000	0.000000	0.000000	0.000000	0.000000	-0.765434	0.000000	-0.401991	0.000000	0.000000	0.000000	0.000000	0.000000	0.000000	0.742904	0.000000	-0.645734	0.000000	0.000000	0.000000
0.007500	0.000000	0.000000	0.000000	-0.217238	0.000000	-0.350244	0.000000	0.000000	0.000000	0.000000	0.000000	0.000000	-0.569010	0.000000	-3.360803	0.000000	0.000000	0.000000	0.000000	0.000000	0.000000	1.189381	0.000000	-0.849374	0.000000	0.000000	0.000000
0.008333	0.000000	0.000000	0.000000	0.054731	-0.000000	0.032123	0.000000	0.000000	0.000000	0.000000	0.000000	0.000000	0.248119	0.000000	-0.391123	0.000000	0.000000	0.000000	0.000000	0.000000	0.000000	0.903347	0.000000	-0.171069	0.000000	0.000000	0.000000
0.009167	0.000000	0.000000	0.000000	0.024033	0.000000	-0.233257	0.000000	0.000000	0.000000	0.000000	0.000000	0.000000	-3.404363	0.000000	-5.223866	0.000000	0.000000	0.000000	0.000000	0.000000	0.000000	2.116371	-0.000000	0.206326	0.000000	0.000000	0.000000
0.010000	0.000000	0.000000	0.000000	-0.200762	0.000000	-0.446507	0.000000	0.000000	0.000000	0.000000	0.000000	0.000000	-9.273544	0.000000	-3.947962	0.000000	0.000000	0.000000	0.000000	0.000000	0.000000	1.019585	0.000000	-0.299575	0.000000	0.000000	0.000000
0.010833	0.000000	0.000000	0.000000	-0.354638	0.000000	-0.381617	0.000000	0.000000	0.000000	0.000000	0.000000	0.000000	-0.020565	0.000000	-0.426451	0.000000	0.000000	0.000000	0.000000	0.000000	0.000000	0.939447	0.000000	-0.403475	0.000000	0.000000	0.000000
0.011667	0.000000	0.000000	0.000000	-0.425313	0.000000	-0.485705	0.000000	0.000000	0.000000	0.000000	0.000000	0.000000	0.013312	0.000000	-0.160871	0.000000	0.000000	0.000000	0.000000	0.000000	0.000000	0.201964	-0.000000	0.742302	0.000000	0.000000	0.000000
0.012500	0.000000	0.000000	0.000000	-0.169591	0.000000	-0.369651	0.000000	0.000000	0.000000	0.000000	0.000000	0.000000	0.098000	0.000000	-0.160775	0.000000	0.000000	0.000000	0.000000	0.000000	0.000000	0.758937	-0.000000	0.874973	0.000000	0.000000	0.000000
0.013333	0.000000	0.000000	0.000000	-0.236358	0.000000	-0.305088	0.000000	0.000000	0.000000	0.000000	0.000000	0.000000	0.394311	0.000000	-0.203938	0.000000	0.000000	0.000000	0.000000	0.000000	0.000000	-1.086184	-0.000000	0.605164	0.000000	0.000000	0.000000
0.014167	0.000000	0.000000	0.000000	0.007858	0.000000	-0.095653	0.000000	0.000000	0.000000	0.000000	0.000000	0.000000	0.068967	0.000000	-0.174764	0.000000	0.000000	0.000000	0.000000	0.000000	0.000000	1.309331	-0.000000	1.081549	0.000000	0.000000	0.000000
0.015000	0.000000	0.000000	0.000000	0.712154	0.000000	-0.719544	0.000000	0.000000	0.000000	0.000000	0.000000	0.000000	-0.764345	0.000000	-0.861305	0.000000	0.000000	0.000000	0.000000	0.000000	0.000000	0.864001	0.000000	-0.338911	0.000000	0.000000	0.000000
